<svg width="34.000000" height="34.000000" viewBox="0 0 34 34" fill="none" xmlns="http://www.w3.org/2000/svg" xmlns:xlink="http://www.w3.org/1999/xlink">
	<desc>
			Created with Pixso.
	</desc>
	<defs/>
	<path id="Vector" d="M26 6C25.6 6 25.21 6.11 24.88 6.33C24.55 6.55 24.3 6.86 24.15 7.23C24 7.6 23.96 8 24.03 8.39C24.11 8.77 24.3 9.13 24.58 9.41C24.86 9.69 25.22 9.88 25.6 9.96C25.99 10.03 26.39 9.99 26.76 9.84C27.13 9.69 27.44 9.44 27.66 9.11C27.88 8.78 28 8.39 28 8C28 7.46 27.78 6.96 27.41 6.58C27.03 6.21 26.53 6 26 6Z" fill="#FFFFFF" fill-opacity="1.000000" fill-rule="nonzero"/>
	<path id="Vector" d="M17.51 9C15.83 8.99 14.18 9.46 12.78 10.34C11.38 11.22 10.29 12.47 9.64 13.93C9 15.4 8.83 17.01 9.16 18.57C9.49 20.12 10.3 21.55 11.5 22.67C12.69 23.78 14.21 24.54 15.87 24.85C17.52 25.15 19.23 24.99 20.78 24.37C22.34 23.76 23.66 22.72 24.59 21.4C25.52 20.08 26.01 18.52 25.99 16.94C25.98 14.83 25.08 12.81 23.49 11.32C21.9 9.84 19.76 9 17.51 9ZM17.51 22.1C16.44 22.11 15.38 21.81 14.48 21.25C13.59 20.69 12.88 19.89 12.47 18.95C12.05 18.01 11.94 16.98 12.15 15.99C12.36 14.99 12.88 14.08 13.64 13.36C14.4 12.64 15.37 12.15 16.42 11.95C17.48 11.75 18.58 11.85 19.57 12.24C20.57 12.63 21.42 13.28 22.02 14.13C22.62 14.97 22.94 15.96 22.94 16.98C22.92 18.32 22.35 19.61 21.33 20.56C20.32 21.52 18.95 22.05 17.51 22.06L17.51 22.1Z" fill="#FFFFFF" fill-opacity="1.000000" fill-rule="nonzero"/>
	<path id="Vector" d="M23.78 34L10.21 34C7.5 33.99 4.91 32.91 2.99 31C1.08 29.09 0 26.49 0 23.79L0 10.2C0 7.5 1.08 4.9 2.99 2.99C4.91 1.08 7.5 0 10.21 0L23.78 0C26.49 0 29.08 1.08 31 2.99C32.91 4.9 33.99 7.5 34 10.2L34 23.79C33.99 26.49 32.91 29.09 31 31C29.08 32.91 26.49 33.99 23.78 34ZM10.21 3.19C8.35 3.19 6.57 3.93 5.25 5.25C3.94 6.56 3.19 8.35 3.19 10.2L3.19 23.79C3.19 25.64 3.94 27.42 5.25 28.73C6.57 30.05 8.35 30.78 10.21 30.78L23.78 30.78C25.64 30.78 27.42 30.05 28.74 28.73C30.05 27.42 30.8 25.64 30.8 23.79L30.8 10.2C30.8 8.35 30.05 6.56 28.74 5.25C27.42 3.93 25.64 3.19 23.78 3.19L10.21 3.19Z" fill="#FFFFFF" fill-opacity="1.000000" fill-rule="nonzero"/>
</svg>
